<svg xmlns="http://www.w3.org/2000/svg" width="1280" height="720" viewBox="0 0 1280 720">
<rect width="1280" height="720" fill="white"/>
<style>text{font-family:"Times New Roman","Microsoft YaHei"}line,path,rect,circle,ellipse,polyline{vector-effect:non-scaling-stroke}</style>
<rect x="0" y="0" width="1280" height="6" fill="#1F4E79"/>
<rect x="760" y="6" width="520" height="680" fill="#FFFFFF"/>
<rect x="819" y="202" width="376" height="257" fill="white"/>
<line x1="819.0" y1="202.0" x2="856.6" y2="202.0" stroke="#888888" stroke-width="0.8"/>
<line x1="819.0" y1="202.0" x2="819.0" y2="244.83333333333334" stroke="#888888" stroke-width="0.8"/>
<line x1="819.0" y1="202.0" x2="856.6" y2="244.83333333333334" stroke="#888888" stroke-width="0.65"/>
<line x1="856.6" y1="202.0" x2="894.2" y2="202.0" stroke="#888888" stroke-width="0.8"/>
<line x1="856.6" y1="202.0" x2="856.6" y2="244.83333333333334" stroke="#888888" stroke-width="0.8"/>
<line x1="856.6" y1="202.0" x2="894.2" y2="244.83333333333334" stroke="#888888" stroke-width="0.65"/>
<line x1="894.2" y1="202.0" x2="931.8000000000001" y2="202.0" stroke="#888888" stroke-width="0.8"/>
<line x1="894.2" y1="202.0" x2="894.2" y2="244.83333333333334" stroke="#888888" stroke-width="0.8"/>
<line x1="894.2" y1="202.0" x2="931.8000000000001" y2="244.83333333333334" stroke="#888888" stroke-width="0.65"/>
<line x1="931.8" y1="202.0" x2="969.4" y2="202.0" stroke="#888888" stroke-width="0.8"/>
<line x1="931.8" y1="202.0" x2="931.8" y2="244.83333333333334" stroke="#888888" stroke-width="0.8"/>
<line x1="931.8" y1="202.0" x2="969.4" y2="244.83333333333334" stroke="#888888" stroke-width="0.65"/>
<line x1="969.4" y1="202.0" x2="1007.0" y2="202.0" stroke="#888888" stroke-width="0.8"/>
<line x1="969.4" y1="202.0" x2="969.4" y2="244.83333333333334" stroke="#888888" stroke-width="0.8"/>
<line x1="969.4" y1="202.0" x2="1007.0" y2="244.83333333333334" stroke="#888888" stroke-width="0.65"/>
<line x1="1007.0" y1="202.0" x2="1044.6" y2="202.0" stroke="#888888" stroke-width="0.8"/>
<line x1="1007.0" y1="202.0" x2="1007.0" y2="244.83333333333334" stroke="#888888" stroke-width="0.8"/>
<line x1="1007.0" y1="202.0" x2="1044.6" y2="244.83333333333334" stroke="#888888" stroke-width="0.65"/>
<line x1="1044.6" y1="202.0" x2="1082.1999999999998" y2="202.0" stroke="#888888" stroke-width="0.8"/>
<line x1="1044.6" y1="202.0" x2="1044.6" y2="244.83333333333334" stroke="#888888" stroke-width="0.8"/>
<line x1="1044.6" y1="202.0" x2="1082.1999999999998" y2="244.83333333333334" stroke="#888888" stroke-width="0.65"/>
<line x1="1082.2" y1="202.0" x2="1119.8" y2="202.0" stroke="#888888" stroke-width="0.8"/>
<line x1="1082.2" y1="202.0" x2="1082.2" y2="244.83333333333334" stroke="#888888" stroke-width="0.8"/>
<line x1="1082.2" y1="202.0" x2="1119.8" y2="244.83333333333334" stroke="#888888" stroke-width="0.65"/>
<line x1="1119.8" y1="202.0" x2="1157.3999999999999" y2="202.0" stroke="#888888" stroke-width="0.8"/>
<line x1="1119.8" y1="202.0" x2="1119.8" y2="244.83333333333334" stroke="#888888" stroke-width="0.8"/>
<line x1="1119.8" y1="202.0" x2="1157.3999999999999" y2="244.83333333333334" stroke="#888888" stroke-width="0.65"/>
<line x1="1157.4" y1="202.0" x2="1195.0" y2="202.0" stroke="#888888" stroke-width="0.8"/>
<line x1="1157.4" y1="202.0" x2="1157.4" y2="244.83333333333334" stroke="#888888" stroke-width="0.8"/>
<line x1="1157.4" y1="202.0" x2="1195.0" y2="244.83333333333334" stroke="#888888" stroke-width="0.65"/>
<line x1="1195.0" y1="202.0" x2="1195.0" y2="244.83333333333334" stroke="#888888" stroke-width="0.8"/>
<line x1="819.0" y1="244.83333333333334" x2="856.6" y2="244.83333333333334" stroke="#888888" stroke-width="0.8"/>
<line x1="819.0" y1="244.83333333333334" x2="819.0" y2="287.6666666666667" stroke="#888888" stroke-width="0.8"/>
<line x1="819.0" y1="244.83333333333334" x2="856.6" y2="287.6666666666667" stroke="#888888" stroke-width="0.65"/>
<line x1="856.6" y1="244.83333333333334" x2="894.2" y2="244.83333333333334" stroke="#888888" stroke-width="0.8"/>
<line x1="856.6" y1="244.83333333333334" x2="856.6" y2="287.6666666666667" stroke="#888888" stroke-width="0.8"/>
<line x1="856.6" y1="244.83333333333334" x2="894.2" y2="287.6666666666667" stroke="#888888" stroke-width="0.65"/>
<line x1="894.2" y1="244.83333333333334" x2="931.8000000000001" y2="244.83333333333334" stroke="#888888" stroke-width="0.8"/>
<line x1="894.2" y1="244.83333333333334" x2="894.2" y2="287.6666666666667" stroke="#888888" stroke-width="0.8"/>
<line x1="894.2" y1="244.83333333333334" x2="931.8000000000001" y2="287.6666666666667" stroke="#888888" stroke-width="0.65"/>
<line x1="931.8" y1="244.83333333333334" x2="969.4" y2="244.83333333333334" stroke="#888888" stroke-width="0.8"/>
<line x1="931.8" y1="244.83333333333334" x2="931.8" y2="287.6666666666667" stroke="#888888" stroke-width="0.8"/>
<line x1="931.8" y1="244.83333333333334" x2="969.4" y2="287.6666666666667" stroke="#888888" stroke-width="0.65"/>
<line x1="969.4" y1="244.83333333333334" x2="1007.0" y2="244.83333333333334" stroke="#888888" stroke-width="0.8"/>
<line x1="969.4" y1="244.83333333333334" x2="969.4" y2="287.6666666666667" stroke="#888888" stroke-width="0.8"/>
<line x1="969.4" y1="244.83333333333334" x2="1007.0" y2="287.6666666666667" stroke="#888888" stroke-width="0.65"/>
<line x1="1007.0" y1="244.83333333333334" x2="1044.6" y2="244.83333333333334" stroke="#888888" stroke-width="0.8"/>
<line x1="1007.0" y1="244.83333333333334" x2="1007.0" y2="287.6666666666667" stroke="#888888" stroke-width="0.8"/>
<line x1="1007.0" y1="244.83333333333334" x2="1044.6" y2="287.6666666666667" stroke="#888888" stroke-width="0.65"/>
<line x1="1044.6" y1="244.83333333333334" x2="1082.1999999999998" y2="244.83333333333334" stroke="#888888" stroke-width="0.8"/>
<line x1="1044.6" y1="244.83333333333334" x2="1044.6" y2="287.6666666666667" stroke="#888888" stroke-width="0.8"/>
<line x1="1044.6" y1="244.83333333333334" x2="1082.1999999999998" y2="287.6666666666667" stroke="#888888" stroke-width="0.65"/>
<line x1="1082.2" y1="244.83333333333334" x2="1119.8" y2="244.83333333333334" stroke="#888888" stroke-width="0.8"/>
<line x1="1082.2" y1="244.83333333333334" x2="1082.2" y2="287.6666666666667" stroke="#888888" stroke-width="0.8"/>
<line x1="1082.2" y1="244.83333333333334" x2="1119.8" y2="287.6666666666667" stroke="#888888" stroke-width="0.65"/>
<line x1="1119.8" y1="244.83333333333334" x2="1157.3999999999999" y2="244.83333333333334" stroke="#888888" stroke-width="0.8"/>
<line x1="1119.8" y1="244.83333333333334" x2="1119.8" y2="287.6666666666667" stroke="#888888" stroke-width="0.8"/>
<line x1="1119.8" y1="244.83333333333334" x2="1157.3999999999999" y2="287.6666666666667" stroke="#888888" stroke-width="0.65"/>
<line x1="1157.4" y1="244.83333333333334" x2="1195.0" y2="244.83333333333334" stroke="#888888" stroke-width="0.8"/>
<line x1="1157.4" y1="244.83333333333334" x2="1157.4" y2="287.6666666666667" stroke="#888888" stroke-width="0.8"/>
<line x1="1157.4" y1="244.83333333333334" x2="1195.0" y2="287.6666666666667" stroke="#888888" stroke-width="0.65"/>
<line x1="1195.0" y1="244.83333333333334" x2="1195.0" y2="287.6666666666667" stroke="#888888" stroke-width="0.8"/>
<line x1="819.0" y1="287.6666666666667" x2="856.6" y2="287.6666666666667" stroke="#888888" stroke-width="0.8"/>
<line x1="819.0" y1="287.6666666666667" x2="819.0" y2="330.5" stroke="#888888" stroke-width="0.8"/>
<line x1="819.0" y1="287.6666666666667" x2="856.6" y2="330.5" stroke="#888888" stroke-width="0.65"/>
<line x1="856.6" y1="287.6666666666667" x2="894.2" y2="287.6666666666667" stroke="#888888" stroke-width="0.8"/>
<line x1="856.6" y1="287.6666666666667" x2="856.6" y2="330.5" stroke="#888888" stroke-width="0.8"/>
<line x1="856.6" y1="287.6666666666667" x2="894.2" y2="330.5" stroke="#888888" stroke-width="0.65"/>
<line x1="894.2" y1="287.6666666666667" x2="931.8000000000001" y2="287.6666666666667" stroke="#888888" stroke-width="0.8"/>
<line x1="894.2" y1="287.6666666666667" x2="894.2" y2="330.5" stroke="#888888" stroke-width="0.8"/>
<line x1="894.2" y1="287.6666666666667" x2="931.8000000000001" y2="330.5" stroke="#888888" stroke-width="0.65"/>
<line x1="931.8" y1="287.6666666666667" x2="969.4" y2="287.6666666666667" stroke="#888888" stroke-width="0.8"/>
<line x1="931.8" y1="287.6666666666667" x2="931.8" y2="330.5" stroke="#888888" stroke-width="0.8"/>
<line x1="931.8" y1="287.6666666666667" x2="969.4" y2="330.5" stroke="#888888" stroke-width="0.65"/>
<line x1="969.4" y1="287.6666666666667" x2="1007.0" y2="287.6666666666667" stroke="#888888" stroke-width="0.8"/>
<line x1="969.4" y1="287.6666666666667" x2="969.4" y2="330.5" stroke="#888888" stroke-width="0.8"/>
<line x1="969.4" y1="287.6666666666667" x2="1007.0" y2="330.5" stroke="#888888" stroke-width="0.65"/>
<line x1="1007.0" y1="287.6666666666667" x2="1044.6" y2="287.6666666666667" stroke="#888888" stroke-width="0.8"/>
<line x1="1007.0" y1="287.6666666666667" x2="1007.0" y2="330.5" stroke="#888888" stroke-width="0.8"/>
<line x1="1007.0" y1="287.6666666666667" x2="1044.6" y2="330.5" stroke="#888888" stroke-width="0.65"/>
<line x1="1044.6" y1="287.6666666666667" x2="1082.1999999999998" y2="287.6666666666667" stroke="#888888" stroke-width="0.8"/>
<line x1="1044.6" y1="287.6666666666667" x2="1044.6" y2="330.5" stroke="#888888" stroke-width="0.8"/>
<line x1="1044.6" y1="287.6666666666667" x2="1082.1999999999998" y2="330.5" stroke="#888888" stroke-width="0.65"/>
<line x1="1082.2" y1="287.6666666666667" x2="1119.8" y2="287.6666666666667" stroke="#888888" stroke-width="0.8"/>
<line x1="1082.2" y1="287.6666666666667" x2="1082.2" y2="330.5" stroke="#888888" stroke-width="0.8"/>
<line x1="1082.2" y1="287.6666666666667" x2="1119.8" y2="330.5" stroke="#888888" stroke-width="0.65"/>
<line x1="1119.8" y1="287.6666666666667" x2="1157.3999999999999" y2="287.6666666666667" stroke="#888888" stroke-width="0.8"/>
<line x1="1119.8" y1="287.6666666666667" x2="1119.8" y2="330.5" stroke="#888888" stroke-width="0.8"/>
<line x1="1119.8" y1="287.6666666666667" x2="1157.3999999999999" y2="330.5" stroke="#888888" stroke-width="0.65"/>
<line x1="1157.4" y1="287.6666666666667" x2="1195.0" y2="287.6666666666667" stroke="#888888" stroke-width="0.8"/>
<line x1="1157.4" y1="287.6666666666667" x2="1157.4" y2="330.5" stroke="#888888" stroke-width="0.8"/>
<line x1="1157.4" y1="287.6666666666667" x2="1195.0" y2="330.5" stroke="#888888" stroke-width="0.65"/>
<line x1="1195.0" y1="287.6666666666667" x2="1195.0" y2="330.5" stroke="#888888" stroke-width="0.8"/>
<line x1="819.0" y1="330.5" x2="856.6" y2="330.5" stroke="#888888" stroke-width="0.8"/>
<line x1="819.0" y1="330.5" x2="819.0" y2="373.3333333333333" stroke="#888888" stroke-width="0.8"/>
<line x1="819.0" y1="330.5" x2="856.6" y2="373.3333333333333" stroke="#888888" stroke-width="0.65"/>
<line x1="856.6" y1="330.5" x2="894.2" y2="330.5" stroke="#888888" stroke-width="0.8"/>
<line x1="856.6" y1="330.5" x2="856.6" y2="373.3333333333333" stroke="#888888" stroke-width="0.8"/>
<line x1="856.6" y1="330.5" x2="894.2" y2="373.3333333333333" stroke="#888888" stroke-width="0.65"/>
<line x1="894.2" y1="330.5" x2="931.8000000000001" y2="330.5" stroke="#888888" stroke-width="0.8"/>
<line x1="894.2" y1="330.5" x2="894.2" y2="373.3333333333333" stroke="#888888" stroke-width="0.8"/>
<line x1="894.2" y1="330.5" x2="931.8000000000001" y2="373.3333333333333" stroke="#888888" stroke-width="0.65"/>
<line x1="931.8" y1="330.5" x2="969.4" y2="330.5" stroke="#888888" stroke-width="0.8"/>
<line x1="931.8" y1="330.5" x2="931.8" y2="373.3333333333333" stroke="#888888" stroke-width="0.8"/>
<line x1="931.8" y1="330.5" x2="969.4" y2="373.3333333333333" stroke="#888888" stroke-width="0.65"/>
<line x1="969.4" y1="330.5" x2="1007.0" y2="330.5" stroke="#888888" stroke-width="0.8"/>
<line x1="969.4" y1="330.5" x2="969.4" y2="373.3333333333333" stroke="#888888" stroke-width="0.8"/>
<line x1="969.4" y1="330.5" x2="1007.0" y2="373.3333333333333" stroke="#888888" stroke-width="0.65"/>
<line x1="1007.0" y1="330.5" x2="1044.6" y2="330.5" stroke="#888888" stroke-width="0.8"/>
<line x1="1007.0" y1="330.5" x2="1007.0" y2="373.3333333333333" stroke="#888888" stroke-width="0.8"/>
<line x1="1007.0" y1="330.5" x2="1044.6" y2="373.3333333333333" stroke="#888888" stroke-width="0.65"/>
<line x1="1044.6" y1="330.5" x2="1082.1999999999998" y2="330.5" stroke="#888888" stroke-width="0.8"/>
<line x1="1044.6" y1="330.5" x2="1044.6" y2="373.3333333333333" stroke="#888888" stroke-width="0.8"/>
<line x1="1044.6" y1="330.5" x2="1082.1999999999998" y2="373.3333333333333" stroke="#888888" stroke-width="0.65"/>
<line x1="1082.2" y1="330.5" x2="1119.8" y2="330.5" stroke="#888888" stroke-width="0.8"/>
<line x1="1082.2" y1="330.5" x2="1082.2" y2="373.3333333333333" stroke="#888888" stroke-width="0.8"/>
<line x1="1082.2" y1="330.5" x2="1119.8" y2="373.3333333333333" stroke="#888888" stroke-width="0.65"/>
<line x1="1119.8" y1="330.5" x2="1157.3999999999999" y2="330.5" stroke="#888888" stroke-width="0.8"/>
<line x1="1119.8" y1="330.5" x2="1119.8" y2="373.3333333333333" stroke="#888888" stroke-width="0.8"/>
<line x1="1119.8" y1="330.5" x2="1157.3999999999999" y2="373.3333333333333" stroke="#888888" stroke-width="0.65"/>
<line x1="1157.4" y1="330.5" x2="1195.0" y2="330.5" stroke="#888888" stroke-width="0.8"/>
<line x1="1157.4" y1="330.5" x2="1157.4" y2="373.3333333333333" stroke="#888888" stroke-width="0.8"/>
<line x1="1157.4" y1="330.5" x2="1195.0" y2="373.3333333333333" stroke="#888888" stroke-width="0.65"/>
<line x1="1195.0" y1="330.5" x2="1195.0" y2="373.3333333333333" stroke="#888888" stroke-width="0.8"/>
<line x1="819.0" y1="373.33333333333337" x2="856.6" y2="373.33333333333337" stroke="#888888" stroke-width="0.8"/>
<line x1="819.0" y1="373.33333333333337" x2="819.0" y2="416.1666666666667" stroke="#888888" stroke-width="0.8"/>
<line x1="819.0" y1="373.33333333333337" x2="856.6" y2="416.1666666666667" stroke="#888888" stroke-width="0.65"/>
<line x1="856.6" y1="373.33333333333337" x2="894.2" y2="373.33333333333337" stroke="#888888" stroke-width="0.8"/>
<line x1="856.6" y1="373.33333333333337" x2="856.6" y2="416.1666666666667" stroke="#888888" stroke-width="0.8"/>
<line x1="856.6" y1="373.33333333333337" x2="894.2" y2="416.1666666666667" stroke="#888888" stroke-width="0.65"/>
<line x1="894.2" y1="373.33333333333337" x2="931.8000000000001" y2="373.33333333333337" stroke="#888888" stroke-width="0.8"/>
<line x1="894.2" y1="373.33333333333337" x2="894.2" y2="416.1666666666667" stroke="#888888" stroke-width="0.8"/>
<line x1="894.2" y1="373.33333333333337" x2="931.8000000000001" y2="416.1666666666667" stroke="#888888" stroke-width="0.65"/>
<line x1="931.8" y1="373.33333333333337" x2="969.4" y2="373.33333333333337" stroke="#888888" stroke-width="0.8"/>
<line x1="931.8" y1="373.33333333333337" x2="931.8" y2="416.1666666666667" stroke="#888888" stroke-width="0.8"/>
<line x1="931.8" y1="373.33333333333337" x2="969.4" y2="416.1666666666667" stroke="#888888" stroke-width="0.65"/>
<line x1="969.4" y1="373.33333333333337" x2="1007.0" y2="373.33333333333337" stroke="#888888" stroke-width="0.8"/>
<line x1="969.4" y1="373.33333333333337" x2="969.4" y2="416.1666666666667" stroke="#888888" stroke-width="0.8"/>
<line x1="969.4" y1="373.33333333333337" x2="1007.0" y2="416.1666666666667" stroke="#888888" stroke-width="0.65"/>
<line x1="1007.0" y1="373.33333333333337" x2="1044.6" y2="373.33333333333337" stroke="#888888" stroke-width="0.8"/>
<line x1="1007.0" y1="373.33333333333337" x2="1007.0" y2="416.1666666666667" stroke="#888888" stroke-width="0.8"/>
<line x1="1007.0" y1="373.33333333333337" x2="1044.6" y2="416.1666666666667" stroke="#888888" stroke-width="0.65"/>
<line x1="1044.6" y1="373.33333333333337" x2="1082.1999999999998" y2="373.33333333333337" stroke="#888888" stroke-width="0.8"/>
<line x1="1044.6" y1="373.33333333333337" x2="1044.6" y2="416.1666666666667" stroke="#888888" stroke-width="0.8"/>
<line x1="1044.6" y1="373.33333333333337" x2="1082.1999999999998" y2="416.1666666666667" stroke="#888888" stroke-width="0.65"/>
<line x1="1082.2" y1="373.33333333333337" x2="1119.8" y2="373.33333333333337" stroke="#888888" stroke-width="0.8"/>
<line x1="1082.2" y1="373.33333333333337" x2="1082.2" y2="416.1666666666667" stroke="#888888" stroke-width="0.8"/>
<line x1="1082.2" y1="373.33333333333337" x2="1119.8" y2="416.1666666666667" stroke="#888888" stroke-width="0.65"/>
<line x1="1119.8" y1="373.33333333333337" x2="1157.3999999999999" y2="373.33333333333337" stroke="#888888" stroke-width="0.8"/>
<line x1="1119.8" y1="373.33333333333337" x2="1119.8" y2="416.1666666666667" stroke="#888888" stroke-width="0.8"/>
<line x1="1119.8" y1="373.33333333333337" x2="1157.3999999999999" y2="416.1666666666667" stroke="#888888" stroke-width="0.65"/>
<line x1="1157.4" y1="373.33333333333337" x2="1195.0" y2="373.33333333333337" stroke="#888888" stroke-width="0.8"/>
<line x1="1157.4" y1="373.33333333333337" x2="1157.4" y2="416.1666666666667" stroke="#888888" stroke-width="0.8"/>
<line x1="1157.4" y1="373.33333333333337" x2="1195.0" y2="416.1666666666667" stroke="#888888" stroke-width="0.65"/>
<line x1="1195.0" y1="373.33333333333337" x2="1195.0" y2="416.1666666666667" stroke="#888888" stroke-width="0.8"/>
<line x1="819.0" y1="416.1666666666667" x2="856.6" y2="416.1666666666667" stroke="#888888" stroke-width="0.8"/>
<line x1="819.0" y1="416.1666666666667" x2="819.0" y2="459.0" stroke="#888888" stroke-width="0.8"/>
<line x1="819.0" y1="416.1666666666667" x2="856.6" y2="459.0" stroke="#888888" stroke-width="0.65"/>
<line x1="856.6" y1="416.1666666666667" x2="894.2" y2="416.1666666666667" stroke="#888888" stroke-width="0.8"/>
<line x1="856.6" y1="416.1666666666667" x2="856.6" y2="459.0" stroke="#888888" stroke-width="0.8"/>
<line x1="856.6" y1="416.1666666666667" x2="894.2" y2="459.0" stroke="#888888" stroke-width="0.65"/>
<line x1="894.2" y1="416.1666666666667" x2="931.8000000000001" y2="416.1666666666667" stroke="#888888" stroke-width="0.8"/>
<line x1="894.2" y1="416.1666666666667" x2="894.2" y2="459.0" stroke="#888888" stroke-width="0.8"/>
<line x1="894.2" y1="416.1666666666667" x2="931.8000000000001" y2="459.0" stroke="#888888" stroke-width="0.65"/>
<line x1="931.8" y1="416.1666666666667" x2="969.4" y2="416.1666666666667" stroke="#888888" stroke-width="0.8"/>
<line x1="931.8" y1="416.1666666666667" x2="931.8" y2="459.0" stroke="#888888" stroke-width="0.8"/>
<line x1="931.8" y1="416.1666666666667" x2="969.4" y2="459.0" stroke="#888888" stroke-width="0.65"/>
<line x1="969.4" y1="416.1666666666667" x2="1007.0" y2="416.1666666666667" stroke="#888888" stroke-width="0.8"/>
<line x1="969.4" y1="416.1666666666667" x2="969.4" y2="459.0" stroke="#888888" stroke-width="0.8"/>
<line x1="969.4" y1="416.1666666666667" x2="1007.0" y2="459.0" stroke="#888888" stroke-width="0.65"/>
<line x1="1007.0" y1="416.1666666666667" x2="1044.6" y2="416.1666666666667" stroke="#888888" stroke-width="0.8"/>
<line x1="1007.0" y1="416.1666666666667" x2="1007.0" y2="459.0" stroke="#888888" stroke-width="0.8"/>
<line x1="1007.0" y1="416.1666666666667" x2="1044.6" y2="459.0" stroke="#888888" stroke-width="0.65"/>
<line x1="1044.6" y1="416.1666666666667" x2="1082.1999999999998" y2="416.1666666666667" stroke="#888888" stroke-width="0.8"/>
<line x1="1044.6" y1="416.1666666666667" x2="1044.6" y2="459.0" stroke="#888888" stroke-width="0.8"/>
<line x1="1044.6" y1="416.1666666666667" x2="1082.1999999999998" y2="459.0" stroke="#888888" stroke-width="0.65"/>
<line x1="1082.2" y1="416.1666666666667" x2="1119.8" y2="416.1666666666667" stroke="#888888" stroke-width="0.8"/>
<line x1="1082.2" y1="416.1666666666667" x2="1082.2" y2="459.0" stroke="#888888" stroke-width="0.8"/>
<line x1="1082.2" y1="416.1666666666667" x2="1119.8" y2="459.0" stroke="#888888" stroke-width="0.65"/>
<line x1="1119.8" y1="416.1666666666667" x2="1157.3999999999999" y2="416.1666666666667" stroke="#888888" stroke-width="0.8"/>
<line x1="1119.8" y1="416.1666666666667" x2="1119.8" y2="459.0" stroke="#888888" stroke-width="0.8"/>
<line x1="1119.8" y1="416.1666666666667" x2="1157.3999999999999" y2="459.0" stroke="#888888" stroke-width="0.65"/>
<line x1="1157.4" y1="416.1666666666667" x2="1195.0" y2="416.1666666666667" stroke="#888888" stroke-width="0.8"/>
<line x1="1157.4" y1="416.1666666666667" x2="1157.4" y2="459.0" stroke="#888888" stroke-width="0.8"/>
<line x1="1157.4" y1="416.1666666666667" x2="1195.0" y2="459.0" stroke="#888888" stroke-width="0.65"/>
<line x1="1195.0" y1="416.1666666666667" x2="1195.0" y2="459.0" stroke="#888888" stroke-width="0.8"/>
<line x1="819.0" y1="459.0" x2="856.6" y2="459.0" stroke="#888888" stroke-width="0.8"/>
<line x1="856.6" y1="459.0" x2="894.2" y2="459.0" stroke="#888888" stroke-width="0.8"/>
<line x1="894.2" y1="459.0" x2="931.8000000000001" y2="459.0" stroke="#888888" stroke-width="0.8"/>
<line x1="931.8" y1="459.0" x2="969.4" y2="459.0" stroke="#888888" stroke-width="0.8"/>
<line x1="969.4" y1="459.0" x2="1007.0" y2="459.0" stroke="#888888" stroke-width="0.8"/>
<line x1="1007.0" y1="459.0" x2="1044.6" y2="459.0" stroke="#888888" stroke-width="0.8"/>
<line x1="1044.6" y1="459.0" x2="1082.1999999999998" y2="459.0" stroke="#888888" stroke-width="0.8"/>
<line x1="1082.2" y1="459.0" x2="1119.8" y2="459.0" stroke="#888888" stroke-width="0.8"/>
<line x1="1119.8" y1="459.0" x2="1157.3999999999999" y2="459.0" stroke="#888888" stroke-width="0.8"/>
<line x1="1157.4" y1="459.0" x2="1195.0" y2="459.0" stroke="#888888" stroke-width="0.8"/>
<ellipse cx="856.6" cy="287.6666666666667" rx="20.70514209011066" ry="16.564113672088528" fill="white" stroke="#1F4E79" stroke-width="1.5"/>
<ellipse cx="931.8" cy="287.6666666666667" rx="17.57820021381355" ry="14.06256017105084" fill="white" stroke="#1F4E79" stroke-width="1.5"/>
<ellipse cx="1007.0" cy="287.6666666666667" rx="22.171523826054084" ry="17.73721906084327" fill="white" stroke="#1F4E79" stroke-width="1.5"/>
<ellipse cx="1082.2" cy="287.6666666666667" rx="21.47547152140881" ry="17.18037721712705" fill="white" stroke="#1F4E79" stroke-width="1.5"/>
<ellipse cx="1157.4" cy="287.6666666666667" rx="17.461467838467236" ry="13.96917427077379" fill="white" stroke="#1F4E79" stroke-width="1.5"/>
<ellipse cx="856.6" cy="373.33333333333337" rx="17.57820021381355" ry="14.06256017105084" fill="white" stroke="#1F4E79" stroke-width="1.5"/>
<ellipse cx="931.8" cy="373.33333333333337" rx="22.171523826054084" ry="17.73721906084327" fill="white" stroke="#1F4E79" stroke-width="1.5"/>
<ellipse cx="1007.0" cy="373.33333333333337" rx="21.47547152140881" ry="17.18037721712705" fill="white" stroke="#1F4E79" stroke-width="1.5"/>
<ellipse cx="1082.2" cy="373.33333333333337" rx="17.461467838467236" ry="13.96917427077379" fill="white" stroke="#1F4E79" stroke-width="1.5"/>
<ellipse cx="1157.4" cy="373.33333333333337" rx="21.49835001220194" ry="17.198680009761553" fill="white" stroke="#1F4E79" stroke-width="1.5"/>
<path d="M827,325.36 C931.8,253.4 1063.4,420.45 1187,317.65" fill="none" stroke="#A63237" stroke-width="3"/>
<path d="M872,503.0 L1056.08,488.0 L1108,512.0 L923.92,527.0 Z" fill="#1F4E79" stroke="white" stroke-width="1"/>
<path d="M872,523.9 L1056.08,508.9 L1108,532.9 L923.92,547.9 Z" fill="#747474" stroke="white" stroke-width="1"/>
<path d="M872,544.8 L1056.08,529.8 L1108,553.8 L923.92,568.8 Z" fill="#343434" stroke="white" stroke-width="1"/>
<path d="M872,565.7 L1056.08,550.7 L1108,574.7 L923.92,589.7 Z" fill="#15344E" stroke="white" stroke-width="1"/>
<polygon points="905.90,579.30 905.90,587.80 902.44,587.80 907.40,595.80 912.36,587.80 908.90,587.80 908.90,579.30" fill="#A63237"/>
<polygon points="934.22,579.30 934.22,587.80 930.76,587.80 935.72,595.80 940.68,587.80 937.22,587.80 937.22,579.30" fill="#A63237"/>
<polygon points="962.54,579.30 962.54,587.80 959.08,587.80 964.04,595.80 969.00,587.80 965.54,587.80 965.54,579.30" fill="#A63237"/>
<polygon points="990.86,579.30 990.86,587.80 987.40,587.80 992.36,595.80 997.32,587.80 993.86,587.80 993.86,579.30" fill="#A63237"/>
<polygon points="1019.18,579.30 1019.18,587.80 1015.72,587.80 1020.68,595.80 1025.64,587.80 1022.18,587.80 1022.18,579.30" fill="#A63237"/>
<polygon points="1047.50,579.30 1047.50,587.80 1044.04,587.80 1049.00,595.80 1053.96,587.80 1050.50,587.80 1050.50,579.30" fill="#A63237"/>
<text x="70" y="227" font-size="48" fill="#15344E" font-weight="700" text-anchor="start"><tspan font-family="Microsoft YaHei">多孔材料的结构与传输</tspan></text>
<text x="74" y="287" font-size="30" fill="#1F4E79" font-weight="400" text-anchor="start"><tspan font-family="Microsoft YaHei">研究进展与下一阶段验证</tspan></text>
<text x="75" y="410" font-size="25" fill="#111111" font-weight="400" text-anchor="start"><tspan font-family="Microsoft YaHei">从结构表征到性能比较</tspan></text>
<text x="75" y="452" font-size="25" fill="#111111" font-weight="400" text-anchor="start"><tspan font-family="Microsoft YaHei">建立可检验的设计依据</tspan></text>
<line x1="75" y1="477" x2="450" y2="477" stroke="#1F4E79" stroke-width="5"/>
<text x="75" y="547" font-size="28" fill="#15344E" font-weight="700" text-anchor="start"><tspan font-family="Microsoft YaHei">结构变化如何影响传输响应？</tspan></text>
<text x="75" y="599" font-size="24" fill="#111111" font-weight="400" text-anchor="start"><tspan font-family="Microsoft YaHei">孔道参数  </tspan><tspan font-family="Times New Roman">/  </tspan><tspan font-family="Microsoft YaHei">界面过程  </tspan><tspan font-family="Times New Roman">/  </tspan><tspan font-family="Microsoft YaHei">响应稳定性</tspan></text>
<text x="1230" y="704" font-size="15" fill="#111111" font-weight="400" text-anchor="end"><tspan font-family="Times New Roman">01</tspan></text>
</svg>