<svg xmlns="http://www.w3.org/2000/svg" width="1280" height="720" viewBox="0 0 1280 720">
<rect width="1280" height="720" fill="white"/>
<style>text{font-family:"Times New Roman","Microsoft YaHei"}line,path,rect,circle,ellipse,polyline{vector-effect:non-scaling-stroke}</style>
<rect x="0" y="0" width="1280" height="6" fill="#1F4E79"/>
<line x1="50" y1="211" x2="1230" y2="211" stroke="#B7B7B7" stroke-width="1.4"/>
<text x="640" y="124" font-size="54" fill="#15344E" font-weight="700" text-anchor="middle"><tspan font-family="Microsoft YaHei">感谢聆听</tspan></text>
<text x="640" y="181" font-size="29" fill="#1F4E79" font-weight="700" text-anchor="middle"><tspan font-family="Microsoft YaHei">多孔材料的结构、机制与可检验设计</tspan></text>
<rect x="65" y="242" width="340" height="34" fill="#1F4E79"/>
<text x="235.0" y="266.48" font-size="21" fill="white" font-weight="700" text-anchor="middle"><tspan font-family="Microsoft YaHei">结构观测</tspan></text>
<rect x="100" y="314" width="270" height="161" fill="white"/>
<line x1="100.0" y1="314.0" x2="127.0" y2="314.0" stroke="#888888" stroke-width="0.8"/>
<line x1="100.0" y1="314.0" x2="100.0" y2="340.8333333333333" stroke="#888888" stroke-width="0.8"/>
<line x1="100.0" y1="314.0" x2="127.0" y2="340.8333333333333" stroke="#888888" stroke-width="0.65"/>
<line x1="127.0" y1="314.0" x2="154.0" y2="314.0" stroke="#888888" stroke-width="0.8"/>
<line x1="127.0" y1="314.0" x2="127.0" y2="340.8333333333333" stroke="#888888" stroke-width="0.8"/>
<line x1="127.0" y1="314.0" x2="154.0" y2="340.8333333333333" stroke="#888888" stroke-width="0.65"/>
<line x1="154.0" y1="314.0" x2="181.0" y2="314.0" stroke="#888888" stroke-width="0.8"/>
<line x1="154.0" y1="314.0" x2="154.0" y2="340.8333333333333" stroke="#888888" stroke-width="0.8"/>
<line x1="154.0" y1="314.0" x2="181.0" y2="340.8333333333333" stroke="#888888" stroke-width="0.65"/>
<line x1="181.0" y1="314.0" x2="208.0" y2="314.0" stroke="#888888" stroke-width="0.8"/>
<line x1="181.0" y1="314.0" x2="181.0" y2="340.8333333333333" stroke="#888888" stroke-width="0.8"/>
<line x1="181.0" y1="314.0" x2="208.0" y2="340.8333333333333" stroke="#888888" stroke-width="0.65"/>
<line x1="208.0" y1="314.0" x2="235.0" y2="314.0" stroke="#888888" stroke-width="0.8"/>
<line x1="208.0" y1="314.0" x2="208.0" y2="340.8333333333333" stroke="#888888" stroke-width="0.8"/>
<line x1="208.0" y1="314.0" x2="235.0" y2="340.8333333333333" stroke="#888888" stroke-width="0.65"/>
<line x1="235.0" y1="314.0" x2="262.0" y2="314.0" stroke="#888888" stroke-width="0.8"/>
<line x1="235.0" y1="314.0" x2="235.0" y2="340.8333333333333" stroke="#888888" stroke-width="0.8"/>
<line x1="235.0" y1="314.0" x2="262.0" y2="340.8333333333333" stroke="#888888" stroke-width="0.65"/>
<line x1="262.0" y1="314.0" x2="289.0" y2="314.0" stroke="#888888" stroke-width="0.8"/>
<line x1="262.0" y1="314.0" x2="262.0" y2="340.8333333333333" stroke="#888888" stroke-width="0.8"/>
<line x1="262.0" y1="314.0" x2="289.0" y2="340.8333333333333" stroke="#888888" stroke-width="0.65"/>
<line x1="289.0" y1="314.0" x2="316.0" y2="314.0" stroke="#888888" stroke-width="0.8"/>
<line x1="289.0" y1="314.0" x2="289.0" y2="340.8333333333333" stroke="#888888" stroke-width="0.8"/>
<line x1="289.0" y1="314.0" x2="316.0" y2="340.8333333333333" stroke="#888888" stroke-width="0.65"/>
<line x1="316.0" y1="314.0" x2="343.0" y2="314.0" stroke="#888888" stroke-width="0.8"/>
<line x1="316.0" y1="314.0" x2="316.0" y2="340.8333333333333" stroke="#888888" stroke-width="0.8"/>
<line x1="316.0" y1="314.0" x2="343.0" y2="340.8333333333333" stroke="#888888" stroke-width="0.65"/>
<line x1="343.0" y1="314.0" x2="370.0" y2="314.0" stroke="#888888" stroke-width="0.8"/>
<line x1="343.0" y1="314.0" x2="343.0" y2="340.8333333333333" stroke="#888888" stroke-width="0.8"/>
<line x1="343.0" y1="314.0" x2="370.0" y2="340.8333333333333" stroke="#888888" stroke-width="0.65"/>
<line x1="370.0" y1="314.0" x2="370.0" y2="340.8333333333333" stroke="#888888" stroke-width="0.8"/>
<line x1="100.0" y1="340.8333333333333" x2="127.0" y2="340.8333333333333" stroke="#888888" stroke-width="0.8"/>
<line x1="100.0" y1="340.8333333333333" x2="100.0" y2="367.66666666666663" stroke="#888888" stroke-width="0.8"/>
<line x1="100.0" y1="340.8333333333333" x2="127.0" y2="367.66666666666663" stroke="#888888" stroke-width="0.65"/>
<line x1="127.0" y1="340.8333333333333" x2="154.0" y2="340.8333333333333" stroke="#888888" stroke-width="0.8"/>
<line x1="127.0" y1="340.8333333333333" x2="127.0" y2="367.66666666666663" stroke="#888888" stroke-width="0.8"/>
<line x1="127.0" y1="340.8333333333333" x2="154.0" y2="367.66666666666663" stroke="#888888" stroke-width="0.65"/>
<line x1="154.0" y1="340.8333333333333" x2="181.0" y2="340.8333333333333" stroke="#888888" stroke-width="0.8"/>
<line x1="154.0" y1="340.8333333333333" x2="154.0" y2="367.66666666666663" stroke="#888888" stroke-width="0.8"/>
<line x1="154.0" y1="340.8333333333333" x2="181.0" y2="367.66666666666663" stroke="#888888" stroke-width="0.65"/>
<line x1="181.0" y1="340.8333333333333" x2="208.0" y2="340.8333333333333" stroke="#888888" stroke-width="0.8"/>
<line x1="181.0" y1="340.8333333333333" x2="181.0" y2="367.66666666666663" stroke="#888888" stroke-width="0.8"/>
<line x1="181.0" y1="340.8333333333333" x2="208.0" y2="367.66666666666663" stroke="#888888" stroke-width="0.65"/>
<line x1="208.0" y1="340.8333333333333" x2="235.0" y2="340.8333333333333" stroke="#888888" stroke-width="0.8"/>
<line x1="208.0" y1="340.8333333333333" x2="208.0" y2="367.66666666666663" stroke="#888888" stroke-width="0.8"/>
<line x1="208.0" y1="340.8333333333333" x2="235.0" y2="367.66666666666663" stroke="#888888" stroke-width="0.65"/>
<line x1="235.0" y1="340.8333333333333" x2="262.0" y2="340.8333333333333" stroke="#888888" stroke-width="0.8"/>
<line x1="235.0" y1="340.8333333333333" x2="235.0" y2="367.66666666666663" stroke="#888888" stroke-width="0.8"/>
<line x1="235.0" y1="340.8333333333333" x2="262.0" y2="367.66666666666663" stroke="#888888" stroke-width="0.65"/>
<line x1="262.0" y1="340.8333333333333" x2="289.0" y2="340.8333333333333" stroke="#888888" stroke-width="0.8"/>
<line x1="262.0" y1="340.8333333333333" x2="262.0" y2="367.66666666666663" stroke="#888888" stroke-width="0.8"/>
<line x1="262.0" y1="340.8333333333333" x2="289.0" y2="367.66666666666663" stroke="#888888" stroke-width="0.65"/>
<line x1="289.0" y1="340.8333333333333" x2="316.0" y2="340.8333333333333" stroke="#888888" stroke-width="0.8"/>
<line x1="289.0" y1="340.8333333333333" x2="289.0" y2="367.66666666666663" stroke="#888888" stroke-width="0.8"/>
<line x1="289.0" y1="340.8333333333333" x2="316.0" y2="367.66666666666663" stroke="#888888" stroke-width="0.65"/>
<line x1="316.0" y1="340.8333333333333" x2="343.0" y2="340.8333333333333" stroke="#888888" stroke-width="0.8"/>
<line x1="316.0" y1="340.8333333333333" x2="316.0" y2="367.66666666666663" stroke="#888888" stroke-width="0.8"/>
<line x1="316.0" y1="340.8333333333333" x2="343.0" y2="367.66666666666663" stroke="#888888" stroke-width="0.65"/>
<line x1="343.0" y1="340.8333333333333" x2="370.0" y2="340.8333333333333" stroke="#888888" stroke-width="0.8"/>
<line x1="343.0" y1="340.8333333333333" x2="343.0" y2="367.66666666666663" stroke="#888888" stroke-width="0.8"/>
<line x1="343.0" y1="340.8333333333333" x2="370.0" y2="367.66666666666663" stroke="#888888" stroke-width="0.65"/>
<line x1="370.0" y1="340.8333333333333" x2="370.0" y2="367.66666666666663" stroke="#888888" stroke-width="0.8"/>
<line x1="100.0" y1="367.6666666666667" x2="127.0" y2="367.6666666666667" stroke="#888888" stroke-width="0.8"/>
<line x1="100.0" y1="367.6666666666667" x2="100.0" y2="394.5" stroke="#888888" stroke-width="0.8"/>
<line x1="100.0" y1="367.6666666666667" x2="127.0" y2="394.5" stroke="#888888" stroke-width="0.65"/>
<line x1="127.0" y1="367.6666666666667" x2="154.0" y2="367.6666666666667" stroke="#888888" stroke-width="0.8"/>
<line x1="127.0" y1="367.6666666666667" x2="127.0" y2="394.5" stroke="#888888" stroke-width="0.8"/>
<line x1="127.0" y1="367.6666666666667" x2="154.0" y2="394.5" stroke="#888888" stroke-width="0.65"/>
<line x1="154.0" y1="367.6666666666667" x2="181.0" y2="367.6666666666667" stroke="#888888" stroke-width="0.8"/>
<line x1="154.0" y1="367.6666666666667" x2="154.0" y2="394.5" stroke="#888888" stroke-width="0.8"/>
<line x1="154.0" y1="367.6666666666667" x2="181.0" y2="394.5" stroke="#888888" stroke-width="0.65"/>
<line x1="181.0" y1="367.6666666666667" x2="208.0" y2="367.6666666666667" stroke="#888888" stroke-width="0.8"/>
<line x1="181.0" y1="367.6666666666667" x2="181.0" y2="394.5" stroke="#888888" stroke-width="0.8"/>
<line x1="181.0" y1="367.6666666666667" x2="208.0" y2="394.5" stroke="#888888" stroke-width="0.65"/>
<line x1="208.0" y1="367.6666666666667" x2="235.0" y2="367.6666666666667" stroke="#888888" stroke-width="0.8"/>
<line x1="208.0" y1="367.6666666666667" x2="208.0" y2="394.5" stroke="#888888" stroke-width="0.8"/>
<line x1="208.0" y1="367.6666666666667" x2="235.0" y2="394.5" stroke="#888888" stroke-width="0.65"/>
<line x1="235.0" y1="367.6666666666667" x2="262.0" y2="367.6666666666667" stroke="#888888" stroke-width="0.8"/>
<line x1="235.0" y1="367.6666666666667" x2="235.0" y2="394.5" stroke="#888888" stroke-width="0.8"/>
<line x1="235.0" y1="367.6666666666667" x2="262.0" y2="394.5" stroke="#888888" stroke-width="0.65"/>
<line x1="262.0" y1="367.6666666666667" x2="289.0" y2="367.6666666666667" stroke="#888888" stroke-width="0.8"/>
<line x1="262.0" y1="367.6666666666667" x2="262.0" y2="394.5" stroke="#888888" stroke-width="0.8"/>
<line x1="262.0" y1="367.6666666666667" x2="289.0" y2="394.5" stroke="#888888" stroke-width="0.65"/>
<line x1="289.0" y1="367.6666666666667" x2="316.0" y2="367.6666666666667" stroke="#888888" stroke-width="0.8"/>
<line x1="289.0" y1="367.6666666666667" x2="289.0" y2="394.5" stroke="#888888" stroke-width="0.8"/>
<line x1="289.0" y1="367.6666666666667" x2="316.0" y2="394.5" stroke="#888888" stroke-width="0.65"/>
<line x1="316.0" y1="367.6666666666667" x2="343.0" y2="367.6666666666667" stroke="#888888" stroke-width="0.8"/>
<line x1="316.0" y1="367.6666666666667" x2="316.0" y2="394.5" stroke="#888888" stroke-width="0.8"/>
<line x1="316.0" y1="367.6666666666667" x2="343.0" y2="394.5" stroke="#888888" stroke-width="0.65"/>
<line x1="343.0" y1="367.6666666666667" x2="370.0" y2="367.6666666666667" stroke="#888888" stroke-width="0.8"/>
<line x1="343.0" y1="367.6666666666667" x2="343.0" y2="394.5" stroke="#888888" stroke-width="0.8"/>
<line x1="343.0" y1="367.6666666666667" x2="370.0" y2="394.5" stroke="#888888" stroke-width="0.65"/>
<line x1="370.0" y1="367.6666666666667" x2="370.0" y2="394.5" stroke="#888888" stroke-width="0.8"/>
<line x1="100.0" y1="394.5" x2="127.0" y2="394.5" stroke="#888888" stroke-width="0.8"/>
<line x1="100.0" y1="394.5" x2="100.0" y2="421.3333333333333" stroke="#888888" stroke-width="0.8"/>
<line x1="100.0" y1="394.5" x2="127.0" y2="421.3333333333333" stroke="#888888" stroke-width="0.65"/>
<line x1="127.0" y1="394.5" x2="154.0" y2="394.5" stroke="#888888" stroke-width="0.8"/>
<line x1="127.0" y1="394.5" x2="127.0" y2="421.3333333333333" stroke="#888888" stroke-width="0.8"/>
<line x1="127.0" y1="394.5" x2="154.0" y2="421.3333333333333" stroke="#888888" stroke-width="0.65"/>
<line x1="154.0" y1="394.5" x2="181.0" y2="394.5" stroke="#888888" stroke-width="0.8"/>
<line x1="154.0" y1="394.5" x2="154.0" y2="421.3333333333333" stroke="#888888" stroke-width="0.8"/>
<line x1="154.0" y1="394.5" x2="181.0" y2="421.3333333333333" stroke="#888888" stroke-width="0.65"/>
<line x1="181.0" y1="394.5" x2="208.0" y2="394.5" stroke="#888888" stroke-width="0.8"/>
<line x1="181.0" y1="394.5" x2="181.0" y2="421.3333333333333" stroke="#888888" stroke-width="0.8"/>
<line x1="181.0" y1="394.5" x2="208.0" y2="421.3333333333333" stroke="#888888" stroke-width="0.65"/>
<line x1="208.0" y1="394.5" x2="235.0" y2="394.5" stroke="#888888" stroke-width="0.8"/>
<line x1="208.0" y1="394.5" x2="208.0" y2="421.3333333333333" stroke="#888888" stroke-width="0.8"/>
<line x1="208.0" y1="394.5" x2="235.0" y2="421.3333333333333" stroke="#888888" stroke-width="0.65"/>
<line x1="235.0" y1="394.5" x2="262.0" y2="394.5" stroke="#888888" stroke-width="0.8"/>
<line x1="235.0" y1="394.5" x2="235.0" y2="421.3333333333333" stroke="#888888" stroke-width="0.8"/>
<line x1="235.0" y1="394.5" x2="262.0" y2="421.3333333333333" stroke="#888888" stroke-width="0.65"/>
<line x1="262.0" y1="394.5" x2="289.0" y2="394.5" stroke="#888888" stroke-width="0.8"/>
<line x1="262.0" y1="394.5" x2="262.0" y2="421.3333333333333" stroke="#888888" stroke-width="0.8"/>
<line x1="262.0" y1="394.5" x2="289.0" y2="421.3333333333333" stroke="#888888" stroke-width="0.65"/>
<line x1="289.0" y1="394.5" x2="316.0" y2="394.5" stroke="#888888" stroke-width="0.8"/>
<line x1="289.0" y1="394.5" x2="289.0" y2="421.3333333333333" stroke="#888888" stroke-width="0.8"/>
<line x1="289.0" y1="394.5" x2="316.0" y2="421.3333333333333" stroke="#888888" stroke-width="0.65"/>
<line x1="316.0" y1="394.5" x2="343.0" y2="394.5" stroke="#888888" stroke-width="0.8"/>
<line x1="316.0" y1="394.5" x2="316.0" y2="421.3333333333333" stroke="#888888" stroke-width="0.8"/>
<line x1="316.0" y1="394.5" x2="343.0" y2="421.3333333333333" stroke="#888888" stroke-width="0.65"/>
<line x1="343.0" y1="394.5" x2="370.0" y2="394.5" stroke="#888888" stroke-width="0.8"/>
<line x1="343.0" y1="394.5" x2="343.0" y2="421.3333333333333" stroke="#888888" stroke-width="0.8"/>
<line x1="343.0" y1="394.5" x2="370.0" y2="421.3333333333333" stroke="#888888" stroke-width="0.65"/>
<line x1="370.0" y1="394.5" x2="370.0" y2="421.3333333333333" stroke="#888888" stroke-width="0.8"/>
<line x1="100.0" y1="421.3333333333333" x2="127.0" y2="421.3333333333333" stroke="#888888" stroke-width="0.8"/>
<line x1="100.0" y1="421.3333333333333" x2="100.0" y2="448.16666666666663" stroke="#888888" stroke-width="0.8"/>
<line x1="100.0" y1="421.3333333333333" x2="127.0" y2="448.16666666666663" stroke="#888888" stroke-width="0.65"/>
<line x1="127.0" y1="421.3333333333333" x2="154.0" y2="421.3333333333333" stroke="#888888" stroke-width="0.8"/>
<line x1="127.0" y1="421.3333333333333" x2="127.0" y2="448.16666666666663" stroke="#888888" stroke-width="0.8"/>
<line x1="127.0" y1="421.3333333333333" x2="154.0" y2="448.16666666666663" stroke="#888888" stroke-width="0.65"/>
<line x1="154.0" y1="421.3333333333333" x2="181.0" y2="421.3333333333333" stroke="#888888" stroke-width="0.8"/>
<line x1="154.0" y1="421.3333333333333" x2="154.0" y2="448.16666666666663" stroke="#888888" stroke-width="0.8"/>
<line x1="154.0" y1="421.3333333333333" x2="181.0" y2="448.16666666666663" stroke="#888888" stroke-width="0.65"/>
<line x1="181.0" y1="421.3333333333333" x2="208.0" y2="421.3333333333333" stroke="#888888" stroke-width="0.8"/>
<line x1="181.0" y1="421.3333333333333" x2="181.0" y2="448.16666666666663" stroke="#888888" stroke-width="0.8"/>
<line x1="181.0" y1="421.3333333333333" x2="208.0" y2="448.16666666666663" stroke="#888888" stroke-width="0.65"/>
<line x1="208.0" y1="421.3333333333333" x2="235.0" y2="421.3333333333333" stroke="#888888" stroke-width="0.8"/>
<line x1="208.0" y1="421.3333333333333" x2="208.0" y2="448.16666666666663" stroke="#888888" stroke-width="0.8"/>
<line x1="208.0" y1="421.3333333333333" x2="235.0" y2="448.16666666666663" stroke="#888888" stroke-width="0.65"/>
<line x1="235.0" y1="421.3333333333333" x2="262.0" y2="421.3333333333333" stroke="#888888" stroke-width="0.8"/>
<line x1="235.0" y1="421.3333333333333" x2="235.0" y2="448.16666666666663" stroke="#888888" stroke-width="0.8"/>
<line x1="235.0" y1="421.3333333333333" x2="262.0" y2="448.16666666666663" stroke="#888888" stroke-width="0.65"/>
<line x1="262.0" y1="421.3333333333333" x2="289.0" y2="421.3333333333333" stroke="#888888" stroke-width="0.8"/>
<line x1="262.0" y1="421.3333333333333" x2="262.0" y2="448.16666666666663" stroke="#888888" stroke-width="0.8"/>
<line x1="262.0" y1="421.3333333333333" x2="289.0" y2="448.16666666666663" stroke="#888888" stroke-width="0.65"/>
<line x1="289.0" y1="421.3333333333333" x2="316.0" y2="421.3333333333333" stroke="#888888" stroke-width="0.8"/>
<line x1="289.0" y1="421.3333333333333" x2="289.0" y2="448.16666666666663" stroke="#888888" stroke-width="0.8"/>
<line x1="289.0" y1="421.3333333333333" x2="316.0" y2="448.16666666666663" stroke="#888888" stroke-width="0.65"/>
<line x1="316.0" y1="421.3333333333333" x2="343.0" y2="421.3333333333333" stroke="#888888" stroke-width="0.8"/>
<line x1="316.0" y1="421.3333333333333" x2="316.0" y2="448.16666666666663" stroke="#888888" stroke-width="0.8"/>
<line x1="316.0" y1="421.3333333333333" x2="343.0" y2="448.16666666666663" stroke="#888888" stroke-width="0.65"/>
<line x1="343.0" y1="421.3333333333333" x2="370.0" y2="421.3333333333333" stroke="#888888" stroke-width="0.8"/>
<line x1="343.0" y1="421.3333333333333" x2="343.0" y2="448.16666666666663" stroke="#888888" stroke-width="0.8"/>
<line x1="343.0" y1="421.3333333333333" x2="370.0" y2="448.16666666666663" stroke="#888888" stroke-width="0.65"/>
<line x1="370.0" y1="421.3333333333333" x2="370.0" y2="448.16666666666663" stroke="#888888" stroke-width="0.8"/>
<line x1="100.0" y1="448.16666666666663" x2="127.0" y2="448.16666666666663" stroke="#888888" stroke-width="0.8"/>
<line x1="100.0" y1="448.16666666666663" x2="100.0" y2="474.99999999999994" stroke="#888888" stroke-width="0.8"/>
<line x1="100.0" y1="448.16666666666663" x2="127.0" y2="474.99999999999994" stroke="#888888" stroke-width="0.65"/>
<line x1="127.0" y1="448.16666666666663" x2="154.0" y2="448.16666666666663" stroke="#888888" stroke-width="0.8"/>
<line x1="127.0" y1="448.16666666666663" x2="127.0" y2="474.99999999999994" stroke="#888888" stroke-width="0.8"/>
<line x1="127.0" y1="448.16666666666663" x2="154.0" y2="474.99999999999994" stroke="#888888" stroke-width="0.65"/>
<line x1="154.0" y1="448.16666666666663" x2="181.0" y2="448.16666666666663" stroke="#888888" stroke-width="0.8"/>
<line x1="154.0" y1="448.16666666666663" x2="154.0" y2="474.99999999999994" stroke="#888888" stroke-width="0.8"/>
<line x1="154.0" y1="448.16666666666663" x2="181.0" y2="474.99999999999994" stroke="#888888" stroke-width="0.65"/>
<line x1="181.0" y1="448.16666666666663" x2="208.0" y2="448.16666666666663" stroke="#888888" stroke-width="0.8"/>
<line x1="181.0" y1="448.16666666666663" x2="181.0" y2="474.99999999999994" stroke="#888888" stroke-width="0.8"/>
<line x1="181.0" y1="448.16666666666663" x2="208.0" y2="474.99999999999994" stroke="#888888" stroke-width="0.65"/>
<line x1="208.0" y1="448.16666666666663" x2="235.0" y2="448.16666666666663" stroke="#888888" stroke-width="0.8"/>
<line x1="208.0" y1="448.16666666666663" x2="208.0" y2="474.99999999999994" stroke="#888888" stroke-width="0.8"/>
<line x1="208.0" y1="448.16666666666663" x2="235.0" y2="474.99999999999994" stroke="#888888" stroke-width="0.65"/>
<line x1="235.0" y1="448.16666666666663" x2="262.0" y2="448.16666666666663" stroke="#888888" stroke-width="0.8"/>
<line x1="235.0" y1="448.16666666666663" x2="235.0" y2="474.99999999999994" stroke="#888888" stroke-width="0.8"/>
<line x1="235.0" y1="448.16666666666663" x2="262.0" y2="474.99999999999994" stroke="#888888" stroke-width="0.65"/>
<line x1="262.0" y1="448.16666666666663" x2="289.0" y2="448.16666666666663" stroke="#888888" stroke-width="0.8"/>
<line x1="262.0" y1="448.16666666666663" x2="262.0" y2="474.99999999999994" stroke="#888888" stroke-width="0.8"/>
<line x1="262.0" y1="448.16666666666663" x2="289.0" y2="474.99999999999994" stroke="#888888" stroke-width="0.65"/>
<line x1="289.0" y1="448.16666666666663" x2="316.0" y2="448.16666666666663" stroke="#888888" stroke-width="0.8"/>
<line x1="289.0" y1="448.16666666666663" x2="289.0" y2="474.99999999999994" stroke="#888888" stroke-width="0.8"/>
<line x1="289.0" y1="448.16666666666663" x2="316.0" y2="474.99999999999994" stroke="#888888" stroke-width="0.65"/>
<line x1="316.0" y1="448.16666666666663" x2="343.0" y2="448.16666666666663" stroke="#888888" stroke-width="0.8"/>
<line x1="316.0" y1="448.16666666666663" x2="316.0" y2="474.99999999999994" stroke="#888888" stroke-width="0.8"/>
<line x1="316.0" y1="448.16666666666663" x2="343.0" y2="474.99999999999994" stroke="#888888" stroke-width="0.65"/>
<line x1="343.0" y1="448.16666666666663" x2="370.0" y2="448.16666666666663" stroke="#888888" stroke-width="0.8"/>
<line x1="343.0" y1="448.16666666666663" x2="343.0" y2="474.99999999999994" stroke="#888888" stroke-width="0.8"/>
<line x1="343.0" y1="448.16666666666663" x2="370.0" y2="474.99999999999994" stroke="#888888" stroke-width="0.65"/>
<line x1="370.0" y1="448.16666666666663" x2="370.0" y2="474.99999999999994" stroke="#888888" stroke-width="0.8"/>
<line x1="100.0" y1="475.0" x2="127.0" y2="475.0" stroke="#888888" stroke-width="0.8"/>
<line x1="127.0" y1="475.0" x2="154.0" y2="475.0" stroke="#888888" stroke-width="0.8"/>
<line x1="154.0" y1="475.0" x2="181.0" y2="475.0" stroke="#888888" stroke-width="0.8"/>
<line x1="181.0" y1="475.0" x2="208.0" y2="475.0" stroke="#888888" stroke-width="0.8"/>
<line x1="208.0" y1="475.0" x2="235.0" y2="475.0" stroke="#888888" stroke-width="0.8"/>
<line x1="235.0" y1="475.0" x2="262.0" y2="475.0" stroke="#888888" stroke-width="0.8"/>
<line x1="262.0" y1="475.0" x2="289.0" y2="475.0" stroke="#888888" stroke-width="0.8"/>
<line x1="289.0" y1="475.0" x2="316.0" y2="475.0" stroke="#888888" stroke-width="0.8"/>
<line x1="316.0" y1="475.0" x2="343.0" y2="475.0" stroke="#888888" stroke-width="0.8"/>
<line x1="343.0" y1="475.0" x2="370.0" y2="475.0" stroke="#888888" stroke-width="0.8"/>
<ellipse cx="127.0" cy="367.6666666666667" rx="14.776276048350248" ry="11.821020838680198" fill="white" stroke="#1F4E79" stroke-width="1.5"/>
<ellipse cx="181.0" cy="367.6666666666667" rx="12.544726216418356" ry="10.035780973134685" fill="white" stroke="#1F4E79" stroke-width="1.5"/>
<ellipse cx="235.0" cy="367.6666666666667" rx="15.822763014160937" ry="12.658210411328751" fill="white" stroke="#1F4E79" stroke-width="1.5"/>
<ellipse cx="289.0" cy="367.6666666666667" rx="15.32602355916143" ry="12.260818847329144" fill="white" stroke="#1F4E79" stroke-width="1.5"/>
<ellipse cx="343.0" cy="367.6666666666667" rx="12.461419866991243" ry="9.969135893592995" fill="white" stroke="#1F4E79" stroke-width="1.5"/>
<ellipse cx="127.0" cy="421.3333333333333" rx="12.544726216418356" ry="10.035780973134685" fill="white" stroke="#1F4E79" stroke-width="1.5"/>
<ellipse cx="181.0" cy="421.3333333333333" rx="15.822763014160937" ry="12.658210411328751" fill="white" stroke="#1F4E79" stroke-width="1.5"/>
<ellipse cx="235.0" cy="421.3333333333333" rx="15.32602355916143" ry="12.260818847329144" fill="white" stroke="#1F4E79" stroke-width="1.5"/>
<ellipse cx="289.0" cy="421.3333333333333" rx="12.461419866991243" ry="9.969135893592995" fill="white" stroke="#1F4E79" stroke-width="1.5"/>
<ellipse cx="343.0" cy="421.3333333333333" rx="15.342350850906525" ry="12.27388068072522" fill="white" stroke="#1F4E79" stroke-width="1.5"/>
<path d="M108,391.28 C181.0,346.2 275.5,450.85 362,386.45" fill="none" stroke="#A63237" stroke-width="3"/>
<text x="235" y="532" font-size="22" fill="#111111" font-weight="400" text-anchor="middle"><tspan font-family="Microsoft YaHei">识别孔道与界面差异</tspan></text>
<text x="235" y="571" font-size="22" fill="#111111" font-weight="400" text-anchor="middle"><tspan font-family="Microsoft YaHei">哪些参数决定有效路径？</tspan></text>
<rect x="470" y="242" width="340" height="34" fill="#1F4E79"/>
<text x="640.0" y="266.48" font-size="21" fill="white" font-weight="700" text-anchor="middle"><tspan font-family="Microsoft YaHei">机制假设</tspan></text>
<text x="505" y="304" font-size="14" fill="#111111" font-weight="400" text-anchor="start"><tspan font-family="Microsoft YaHei">相对响应</tspan></text>
<line x1="505" y1="475" x2="775" y2="475" stroke="#555555" stroke-width="1.3"/>
<line x1="505" y1="338" x2="505" y2="475" stroke="#555555" stroke-width="1.3"/>
<line x1="505" y1="372.25" x2="775" y2="372.25" stroke="#B7B7B7" stroke-width="0.7"/>
<line x1="505" y1="406.5" x2="775" y2="406.5" stroke="#B7B7B7" stroke-width="0.7"/>
<line x1="505" y1="440.75" x2="775" y2="440.75" stroke="#B7B7B7" stroke-width="0.7"/>
<path d="M505.0,361.3 L514.0,367.0 L523.0,372.4 L532.0,377.4 L541.0,382.1 L550.0,386.5 L559.0,390.6 L568.0,394.5 L577.0,398.1 L586.0,401.5 L595.0,404.6 L604.0,407.6 L613.0,410.3 L622.0,412.9 L631.0,415.3 L640.0,417.6 L649.0,419.7 L658.0,421.7 L667.0,423.5 L676.0,425.2 L685.0,426.9 L694.0,428.4 L703.0,429.8 L712.0,431.1 L721.0,432.4 L730.0,433.5 L739.0,434.6 L748.0,435.6 L757.0,436.6 L766.0,437.5 L775.0,438.3" fill="none" stroke="#1F4E79" stroke-width="2.6"/>
<circle cx="505.0" cy="361.28999999999996" r="2.8" fill="#1F4E79"/>
<circle cx="559.0" cy="390.6479999005263" r="2.8" fill="#1F4E79"/>
<circle cx="613.0" cy="410.3272557453614" r="2.8" fill="#1F4E79"/>
<circle cx="667.0" cy="423.51865542921837" r="2.8" fill="#1F4E79"/>
<circle cx="721.0" cy="432.36111507257596" r="2.8" fill="#1F4E79"/>
<circle cx="775.0" cy="438.28839302777965" r="2.8" fill="#1F4E79"/>
<path d="M505.0,361.3 L514.0,369.8 L523.0,377.4 L532.0,384.4 L541.0,390.6 L550.0,396.3 L559.0,401.5 L568.0,406.1 L577.0,410.3 L586.0,414.1 L595.0,417.6 L604.0,420.7 L613.0,423.5 L622.0,426.1 L631.0,428.4 L640.0,430.5 L649.0,432.4 L658.0,434.1 L667.0,435.6 L676.0,437.0 L685.0,438.3 L694.0,439.4 L703.0,440.5 L712.0,441.4 L721.0,442.3 L730.0,443.0 L739.0,443.7 L748.0,444.4 L757.0,444.9 L766.0,445.4 L775.0,445.9" fill="none" stroke="#A63237" stroke-width="2.6"/>
<circle cx="505.0" cy="361.28999999999996" r="2.8" fill="#A63237"/>
<circle cx="559.0" cy="401.46832380582697" r="2.8" fill="#A63237"/>
<circle cx="613.0" cy="423.5186554292184" r="2.8" fill="#A63237"/>
<circle cx="667.0" cy="435.6201340038677" r="2.8" fill="#A63237"/>
<circle cx="721.0" cy="442.2615662595778" r="2.8" fill="#A63237"/>
<circle cx="775.0" cy="445.90646156184175" r="2.8" fill="#A63237"/>
<path d="M505.0,361.3 L514.0,372.4 L523.0,382.1 L532.0,390.6 L541.0,398.1 L550.0,404.6 L559.0,410.3 L568.0,415.3 L577.0,419.7 L586.0,423.5 L595.0,426.9 L604.0,429.8 L613.0,432.4 L622.0,434.6 L631.0,436.6 L640.0,438.3 L649.0,439.8 L658.0,441.1 L667.0,442.3 L676.0,443.3 L685.0,444.2 L694.0,444.9 L703.0,445.6 L712.0,446.2 L721.0,446.7 L730.0,447.2 L739.0,447.6 L748.0,447.9 L757.0,448.2 L766.0,448.5 L775.0,448.7" fill="none" stroke="#343434" stroke-width="2.6"/>
<circle cx="505.0" cy="361.28999999999996" r="2.8" fill="#343434"/>
<circle cx="559.0" cy="410.3272557453614" r="2.8" fill="#343434"/>
<circle cx="613.0" cy="432.36111507257596" r="2.8" fill="#343434"/>
<circle cx="667.0" cy="442.2615662595778" r="2.8" fill="#343434"/>
<circle cx="721.0" cy="446.7101257357265" r="2.8" fill="#343434"/>
<circle cx="775.0" cy="448.7089923569582" r="2.8" fill="#343434"/>
<text x="640.0" y="500" font-size="14" fill="#111111" font-weight="400" text-anchor="middle"><tspan font-family="Microsoft YaHei">归一化条件</tspan></text>
<line x1="511.0" y1="321" x2="529.0" y2="321" stroke="#1F4E79" stroke-width="3"/>
<text x="535.0" y="325" font-size="13" fill="#111111" font-weight="400" text-anchor="start"><tspan font-family="Times New Roman">A</tspan></text>
<line x1="601.0" y1="321" x2="619.0" y2="321" stroke="#A63237" stroke-width="3"/>
<text x="625.0" y="325" font-size="13" fill="#111111" font-weight="400" text-anchor="start"><tspan font-family="Times New Roman">B</tspan></text>
<line x1="691.0" y1="321" x2="709.0" y2="321" stroke="#343434" stroke-width="3"/>
<text x="715.0" y="325" font-size="13" fill="#111111" font-weight="400" text-anchor="start"><tspan font-family="Times New Roman">C</tspan></text>
<text x="640" y="532" font-size="22" fill="#111111" font-weight="400" text-anchor="middle"><tspan font-family="Microsoft YaHei">连接传输过程与动态响应</tspan></text>
<text x="640" y="571" font-size="22" fill="#111111" font-weight="400" text-anchor="middle"><tspan font-family="Microsoft YaHei">哪一步控制响应变化？</tspan></text>
<rect x="875" y="242" width="340" height="34" fill="#1F4E79"/>
<text x="1045.0" y="266.48" font-size="21" fill="white" font-weight="700" text-anchor="middle"><tspan font-family="Microsoft YaHei">独立检验</tspan></text>
<line x1="910" y1="475" x2="1180" y2="475" stroke="#555555" stroke-width="1.2"/>
<line x1="910" y1="314" x2="910" y2="475" stroke="#555555" stroke-width="1.2"/>
<line x1="910" y1="475" x2="1180" y2="314" stroke="#B7B7B7" stroke-width="1.3" stroke-dasharray="5 4"/>
<circle cx="910.0" cy="470.16999999999996" r="3.2" fill="#A63237"/>
<circle cx="1076.8691769490001" cy="358.1367524062237" r="3.2" fill="#1F4E79"/>
<circle cx="973.738353898" cy="443.863666395348" r="3.2" fill="#1F4E79"/>
<circle cx="1140.607530847" cy="352.13012483438933" r="3.2" fill="#1F4E79"/>
<circle cx="1037.476707796" cy="386.32110176399374" r="3.2" fill="#A63237"/>
<circle cx="934.345884745" cy="450.85462515917357" r="3.2" fill="#1F4E79"/>
<circle cx="1101.215061694" cy="377.45472895920125" r="3.2" fill="#1F4E79"/>
<circle cx="998.0842386430002" cy="425.58304978685135" r="3.2" fill="#1F4E79"/>
<circle cx="1164.953415592" cy="318.83" r="3.2" fill="#A63237"/>
<circle cx="1061.822592541" cy="388.36879009087596" r="3.2" fill="#1F4E79"/>
<circle cx="958.6917694900002" cy="462.12711337880177" r="3.2" fill="#1F4E79"/>
<circle cx="1125.560946439" cy="336.16527348147173" r="3.2" fill="#1F4E79"/>
<circle cx="1022.430123388" cy="395.8716358800176" r="3.2" fill="#A63237"/>
<circle cx="919.2993003370002" cy="470.16999999999996" r="3.2" fill="#1F4E79"/>
<circle cx="1086.1684772860003" cy="376.0696906448655" r="3.2" fill="#1F4E79"/>
<circle cx="983.037654235" cy="413.94625336456556" r="3.2" fill="#1F4E79"/>
<circle cx="1149.906831184" cy="332.75291098971877" r="3.2" fill="#A63237"/>
<circle cx="1046.7760081330002" cy="410.62266414338035" r="3.2" fill="#1F4E79"/>
<circle cx="943.645185082" cy="447.32890585133794" r="3.2" fill="#1F4E79"/>
<circle cx="1110.5143620310002" cy="341.26364900106466" r="3.2" fill="#1F4E79"/>
<circle cx="1007.3835389800004" cy="430.14747051167126" r="3.2" fill="#A63237"/>
<circle cx="1174.252715929" cy="326.3665048326962" r="3.2" fill="#1F4E79"/>
<circle cx="1071.1218928780002" cy="362.1686751964331" r="3.2" fill="#1F4E79"/>
<circle cx="967.9910698270003" cy="438.1119483920565" r="3.2" fill="#1F4E79"/>
<circle cx="1134.860246776" cy="358.5851350319591" r="3.2" fill="#A63237"/>
<circle cx="1031.729423725" cy="397.7286028072163" r="3.2" fill="#1F4E79"/>
<circle cx="928.5986006740003" cy="448.0953129159175" r="3.2" fill="#1F4E79"/>
<circle cx="1095.467777623" cy="375.349833646392" r="3.2" fill="#1F4E79"/>
<circle cx="992.3369545720006" cy="437.38596417926794" r="3.2" fill="#A63237"/>
<circle cx="1159.2061315210003" cy="318.83" r="3.2" fill="#1F4E79"/>
<circle cx="1056.07530847" cy="382.5425998396893" r="3.2" fill="#1F4E79"/>
<circle cx="952.9444854190007" cy="466.9994233070776" r="3.2" fill="#1F4E79"/>
<circle cx="1119.8136623680002" cy="348.2736441329336" r="3.2" fill="#A63237"/>
<circle cx="1016.682839317" cy="394.4176353941152" r="3.2" fill="#1F4E79"/>
<circle cx="913.5520162660007" cy="470.16999999999996" r="3.2" fill="#1F4E79"/>
<circle cx="1080.4211932150004" cy="387.04914573650495" r="3.2" fill="#1F4E79"/>
<circle cx="977.290370164" cy="421.13374044455804" r="3.2" fill="#A63237"/>
<circle cx="1144.1595471130006" cy="327.1393409740278" r="3.2" fill="#1F4E79"/>
<circle cx="1041.0287240620003" cy="413.86743416815324" r="3.2" fill="#1F4E79"/>
<circle cx="937.897901011" cy="459.8688001517704" r="3.2" fill="#1F4E79"/>
<circle cx="1104.7670779600007" cy="341.2664010119241" r="3.2" fill="#A63237"/>
<circle cx="1001.6362549090003" cy="425.8170186994101" r="3.2" fill="#1F4E79"/>
<circle cx="1168.505431858" cy="336.2881804460418" r="3.2" fill="#1F4E79"/>
<circle cx="1065.3746088070006" cy="370.78288142907684" r="3.2" fill="#1F4E79"/>
<circle cx="962.2437857560003" cy="432.99149433086296" r="3.2" fill="#A63237"/>
<text x="1045.0" y="498" font-size="14" fill="#111111" font-weight="400" text-anchor="middle"><tspan font-family="Microsoft YaHei">测量值</tspan></text>
<text x="910" y="304" font-size="14" fill="#111111" font-weight="400" text-anchor="start"><tspan font-family="Microsoft YaHei">预测值</tspan></text>
<text x="1045" y="532" font-size="22" fill="#111111" font-weight="400" text-anchor="middle"><tspan font-family="Microsoft YaHei">比较预测与新增测量</tspan></text>
<text x="1045" y="571" font-size="22" fill="#111111" font-weight="400" text-anchor="middle"><tspan font-family="Microsoft YaHei">跨批次能否重复观察？</tspan></text>
<polygon points="419.00,396.50 439.00,396.50 439.00,401.54 456.00,391.00 439.00,380.46 439.00,385.50 419.00,385.50" fill="#1F4E79"/>
<polygon points="824.00,396.50 844.00,396.50 844.00,401.54 861.00,391.00 844.00,380.46 844.00,385.50 824.00,385.50" fill="#1F4E79"/>
<text x="640" y="650" font-size="27" fill="#A63237" font-weight="700" text-anchor="middle"><tspan font-family="Microsoft YaHei">欢迎围绕关键机制、验证设计与后续研究展开讨论</tspan></text>
<text x="1230" y="704" font-size="15" fill="#111111" font-weight="400" text-anchor="end"><tspan font-family="Times New Roman">28</tspan></text>
</svg>